<?xml version="1.0" encoding="UTF-8"?>
<svg id="Layer_1" data-name="Layer 1" xmlns="http://www.w3.org/2000/svg" viewBox="0 0 1000 1000">
  <defs>
    <style>
      .cls-1 {
        fill: #1a1a1a;
      }
    </style>
  </defs>
  <g>
    <path class="cls-1" d="M358.07,460.31c2.49-3.95,3.73-8.76,3.73-14.44s-1.22-10.43-3.65-14.52c-2.41-4.09-5.86-7.22-10.31-9.43-4.47-2.19-9.77-3.29-15.88-3.29h-33.79v15.94h29.52c2.95,0,5.44.42,7.46,1.24,2.03.84,3.57,2.11,4.59,3.77,1.04,1.66,1.56,3.75,1.56,6.28s-.52,4.61-1.56,6.22c-1.02,1.6-2.55,2.81-4.57,3.59-1.66.66-3.69,1.04-6.04,1.14h-9.63l23.53,43.62h21.56l-16.97-31.15c4.51-2.07,8-5.05,10.45-8.99Z"/>
    <path class="cls-1" d="M430.6,422.39c-5.9-3.25-12.5-4.87-19.84-4.87s-13.96,1.62-19.84,4.87c-5.9,3.25-10.57,8-14,14.26-3.45,6.26-5.17,13.9-5.17,22.88s1.72,16.59,5.17,22.84c3.43,6.24,8.1,10.99,14,14.28,5.88,3.27,12.5,4.91,19.84,4.91s13.94-1.62,19.84-4.87c5.9-3.25,10.59-8,14.04-14.26,3.47-6.26,5.19-13.9,5.19-22.9s-1.72-16.63-5.19-22.88c-3.45-6.26-8.14-11.01-14.04-14.26ZM427.37,473.05c-1.5,3.67-3.67,6.46-6.48,8.34-2.81,1.89-6.18,2.83-10.13,2.83s-7.28-.94-10.09-2.83c-2.83-1.89-4.99-4.67-6.5-8.34-1.5-3.69-2.27-8.18-2.27-13.52s.76-9.83,2.27-13.5c1.5-3.67,3.67-6.46,6.5-8.34,2.81-1.89,6.18-2.83,10.09-2.83s7.32.94,10.13,2.83c2.81,1.89,4.97,4.67,6.48,8.34,1.5,3.67,2.25,8.18,2.25,13.5s-.74,9.83-2.25,13.52Z"/>
    <path class="cls-1" d="M533.37,482.43c3.45-6.26,5.19-13.9,5.19-22.9s-1.74-16.63-5.19-22.88c-3.47-6.26-8.14-11.01-14.04-14.26-5.9-3.25-12.52-4.87-19.84-4.87s-13.98,1.62-19.86,4.87c-5.9,3.25-10.55,8-14,14.26-3.45,6.26-5.17,13.9-5.17,22.88s1.73,16.59,5.17,22.84c3.45,6.24,8.1,10.99,14,14.28,5.88,3.27,12.49,4.91,19.86,4.91s13.94-1.62,19.84-4.87c5.9-3.25,10.57-8,14.04-14.26ZM516.08,473.05c-1.5,3.67-3.65,6.46-6.46,8.34-2.81,1.89-6.2,2.83-10.13,2.83s-7.28-.94-10.11-2.83c-2.83-1.89-4.99-4.67-6.5-8.34-1.5-3.69-2.25-8.18-2.25-13.52s.74-9.83,2.25-13.5c1.5-3.67,3.67-6.46,6.5-8.34,2.83-1.89,6.2-2.83,10.11-2.83s7.32.94,10.13,2.83c2.81,1.89,4.95,4.67,6.46,8.34,1.5,3.67,2.27,8.18,2.27,13.5s-.76,9.83-2.27,13.52Z"/>
    <polygon class="cls-1" points="622.28 450.18 622.28 500.45 641.53 500.45 641.53 418.64 617.04 418.64 596.26 469.28 595.32 469.28 574.54 418.64 550.05 418.64 550.05 500.45 569.31 500.45 569.31 449.9 569.99 449.9 589.64 499.92 601.94 499.92 621.59 450.18 622.28 450.18"/>
    <path class="cls-1" d="M698.77,500.45h21.58l-16.99-31.15c4.51-2.07,8-5.05,10.47-8.99,2.47-3.95,3.71-8.76,3.71-14.44s-1.2-10.43-3.63-14.52c-2.43-4.09-5.88-7.22-10.33-9.43-4.45-2.19-9.75-3.29-15.88-3.29h-33.8v81.81h19.78v-28h10.13l14.96,28ZM673.68,434.58h9.75c2.97,0,5.46.42,7.48,1.24,2.03.84,3.55,2.11,4.59,3.77,1.02,1.66,1.54,3.75,1.54,6.28s-.52,4.61-1.54,6.22c-1.04,1.6-2.57,2.81-4.57,3.59-2.03.78-4.51,1.18-7.5,1.18h-9.75v-22.28Z"/>
    <rect class="cls-1" x="728.37" y="418.64" width="19.78" height="81.81"/>
    <path class="cls-1" d="M798.85,484.06c-1.89.72-4.15,1.08-6.82,1.08-2.89,0-5.44-.46-7.64-1.36-2.21-.9-3.93-2.23-5.17-3.99-1.24-1.74-1.97-3.95-2.11-6.58h-18.95c.08,6.38,1.54,11.67,4.37,15.84,2.81,4.19,6.76,7.3,11.85,9.35,5.09,2.07,11.05,3.09,17.89,3.09s12.66-1,17.49-2.97c4.83-1.97,8.54-4.79,11.11-8.5,2.59-3.71,3.89-8.14,3.93-13.3-.04-3.29-.6-6.24-1.68-8.87-1.1-2.65-2.71-4.97-4.81-7-2.13-2.03-4.73-3.77-7.82-5.23-3.11-1.46-6.68-2.63-10.73-3.51l-7.04-1.6c-1.87-.4-3.53-.86-5.03-1.38-1.48-.54-2.75-1.16-3.81-1.87-1.04-.7-1.85-1.52-2.39-2.47-.56-.92-.8-2.01-.74-3.23.02-1.48.46-2.81,1.3-3.97.86-1.16,2.15-2.07,3.85-2.73,1.71-.68,3.83-1,6.38-1,3.87,0,6.84.82,8.92,2.45,2.11,1.64,3.27,3.93,3.55,6.86h18.93c-.06-5.09-1.38-9.57-3.95-13.42-2.59-3.87-6.22-6.88-10.89-9.03-4.67-2.13-10.19-3.21-16.53-3.21s-11.73,1.06-16.57,3.21c-4.85,2.13-8.64,5.09-11.39,8.9-2.75,3.81-4.09,8.24-4.07,13.3-.02,6.2,2.01,11.13,6.08,14.76,4.07,3.63,9.65,6.26,16.73,7.88l8.54,2.01c2.99.68,5.46,1.44,7.38,2.25,1.93.82,3.37,1.78,4.29,2.89.94,1.1,1.4,2.43,1.44,3.97-.04,1.64-.54,3.11-1.56,4.39-1,1.28-2.45,2.27-4.33,2.99Z"/>
    <polygon class="cls-1" points="891.87 484.38 854.59 484.38 854.59 467.57 888.94 467.57 888.94 451.47 854.59 451.47 854.59 434.7 891.87 434.7 891.87 418.64 834.81 418.64 834.81 500.45 891.87 500.45 891.87 484.38"/>
    <path class="cls-1" d="M355.95,574.11c-2.13-2.03-4.73-3.77-7.82-5.23-3.11-1.46-6.68-2.65-10.73-3.51l-7.04-1.6c-1.87-.4-3.53-.86-5.03-1.4-1.48-.52-2.75-1.14-3.81-1.85-1.04-.72-1.85-1.52-2.39-2.47-.56-.92-.8-2.01-.74-3.23.02-1.5.46-2.83,1.3-3.97.86-1.16,2.15-2.09,3.85-2.75,1.7-.66,3.83-1,6.38-1,3.87,0,6.84.82,8.95,2.47,2.09,1.62,3.25,3.91,3.53,6.84h18.93c-.06-5.07-1.38-9.55-3.95-13.42-2.59-3.85-6.22-6.86-10.89-9.01-4.67-2.15-10.19-3.21-16.53-3.21s-11.73,1.06-16.57,3.19c-4.85,2.13-8.64,5.09-11.39,8.9-2.75,3.81-4.09,8.24-4.07,13.3-.02,6.22,2.01,11.13,6.08,14.76,4.07,3.65,9.65,6.28,16.73,7.9l8.56,1.99c2.97.7,5.44,1.44,7.36,2.27,1.93.8,3.37,1.77,4.29,2.87.94,1.1,1.4,2.43,1.44,3.97-.04,1.66-.54,3.13-1.56,4.39-1,1.28-2.45,2.29-4.33,3.01-1.89.72-4.15,1.08-6.82,1.08-2.89,0-5.44-.46-7.64-1.36s-3.93-2.25-5.17-3.99c-1.24-1.76-1.95-3.95-2.11-6.6h-18.93c.06,6.4,1.52,11.67,4.35,15.86,2.81,4.17,6.76,7.3,11.85,9.35,5.09,2.05,11.05,3.07,17.89,3.07s12.66-.98,17.49-2.95c4.83-1.97,8.54-4.81,11.11-8.5,2.59-3.71,3.89-8.14,3.93-13.32-.04-3.27-.6-6.22-1.68-8.87-1.1-2.63-2.71-4.95-4.81-6.98Z"/>
    <path class="cls-1" d="M430.44,535.64c-5.9-3.25-12.49-4.87-19.84-4.87s-13.96,1.62-19.84,4.87c-5.9,3.25-10.57,8-14,14.26-3.45,6.26-5.17,13.88-5.17,22.88s1.72,16.59,5.17,22.82c3.43,6.26,8.1,11.01,14,14.28,5.88,3.29,12.5,4.91,19.84,4.91s13.94-1.62,19.84-4.87c5.9-3.25,10.59-8,14.04-14.26,3.47-6.26,5.19-13.88,5.19-22.88s-1.72-16.63-5.19-22.88c-3.45-6.26-8.14-11.01-14.04-14.26ZM427.21,586.29c-1.5,3.67-3.67,6.46-6.48,8.34-2.81,1.91-6.18,2.85-10.13,2.85s-7.28-.94-10.09-2.85c-2.83-1.89-4.99-4.67-6.5-8.34-1.5-3.67-2.27-8.16-2.27-13.5s.76-9.83,2.27-13.5c1.5-3.67,3.67-6.46,6.5-8.36,2.81-1.89,6.18-2.83,10.09-2.83s7.32.94,10.13,2.83c2.81,1.91,4.97,4.69,6.48,8.36,1.5,3.67,2.27,8.16,2.27,13.5s-.76,9.83-2.27,13.5Z"/>
    <polygon class="cls-1" points="480.96 531.87 461.18 531.87 461.18 613.68 514.99 613.68 514.99 597.64 480.96 597.64 480.96 531.87"/>
    <path class="cls-1" d="M574.7,582.94c0,2.83-.62,5.33-1.89,7.54-1.24,2.23-2.99,3.95-5.19,5.19-2.23,1.26-4.81,1.89-7.78,1.89s-5.56-.62-7.78-1.89c-2.25-1.24-3.97-2.97-5.21-5.19-1.24-2.21-1.87-4.71-1.87-7.54v-51.06h-19.78v52.77c0,6.12,1.44,11.41,4.31,15.92,2.89,4.51,6.92,8,12.11,10.47,5.19,2.47,11.27,3.69,18.21,3.69s12.9-1.22,18.09-3.69,9.25-5.96,12.15-10.47c2.91-4.51,4.35-9.81,4.35-15.92v-52.77h-19.74v51.06Z"/>
    <polygon class="cls-1" points="604.14 547.94 628.99 547.94 628.99 613.68 648.49 613.68 648.49 547.94 673.28 547.94 673.28 531.87 604.14 531.87 604.14 547.94"/>
    <rect class="cls-1" x="682.99" y="531.87" width="19.78" height="81.81"/>
    <path class="cls-1" d="M773.12,535.64c-5.9-3.25-12.5-4.87-19.82-4.87s-13.98,1.62-19.86,4.87c-5.9,3.25-10.55,8-14,14.26-3.45,6.26-5.17,13.88-5.17,22.88s1.72,16.59,5.17,22.82c3.45,6.26,8.1,11.01,14,14.28,5.88,3.29,12.5,4.91,19.86,4.91s13.92-1.62,19.82-4.87c5.92-3.25,10.59-8,14.04-14.26,3.47-6.26,5.19-13.88,5.19-22.88s-1.72-16.63-5.19-22.88c-3.45-6.26-8.12-11.01-14.04-14.26ZM769.89,586.29c-1.5,3.67-3.65,6.46-6.46,8.34-2.83,1.91-6.2,2.85-10.13,2.85s-7.3-.94-10.11-2.85c-2.83-1.89-4.99-4.67-6.5-8.34-1.5-3.67-2.25-8.16-2.25-13.5s.74-9.83,2.25-13.5c1.5-3.67,3.67-6.46,6.5-8.36,2.81-1.89,6.18-2.83,10.11-2.83s7.3.94,10.13,2.83c2.81,1.91,4.95,4.69,6.46,8.36,1.5,3.67,2.27,8.16,2.27,13.5s-.76,9.83-2.27,13.5Z"/>
    <polygon class="cls-1" points="853.75 579.03 853.08 579.03 820.87 531.87 803.87 531.87 803.87 613.68 823.64 613.68 823.64 566.47 824.16 566.47 856.71 613.68 873.48 613.68 873.48 531.87 853.75 531.87 853.75 579.03"/>
    <path class="cls-1" d="M948.47,581.09c-1.1-2.63-2.71-4.95-4.81-6.98-2.13-2.03-4.73-3.77-7.84-5.23-3.09-1.46-6.68-2.65-10.73-3.51l-7.02-1.6c-1.87-.4-3.55-.86-5.03-1.4-1.48-.52-2.77-1.14-3.81-1.85-1.06-.72-1.85-1.52-2.41-2.47-.54-.92-.78-2.01-.74-3.23.04-1.5.48-2.83,1.32-3.97.86-1.16,2.13-2.09,3.83-2.75,1.7-.66,3.85-1,6.4-1,3.87,0,6.84.82,8.92,2.47,2.09,1.62,3.27,3.91,3.53,6.84h18.93c-.04-5.07-1.36-9.55-3.95-13.42-2.59-3.85-6.2-6.86-10.87-9.01-4.67-2.15-10.19-3.21-16.53-3.21s-11.73,1.06-16.57,3.19c-4.85,2.13-8.64,5.09-11.39,8.9-2.75,3.81-4.11,8.24-4.07,13.3-.04,6.22,1.99,11.13,6.06,14.76,4.09,3.65,9.67,6.28,16.75,7.9l8.54,1.99c2.99.7,5.44,1.44,7.38,2.27,1.92.8,3.35,1.77,4.29,2.87.92,1.1,1.4,2.43,1.42,3.97-.02,1.66-.54,3.13-1.54,4.39-1.02,1.28-2.47,2.29-4.33,3.01-1.89.72-4.15,1.08-6.82,1.08-2.91,0-5.45-.46-7.64-1.36-2.21-.9-3.93-2.25-5.17-3.99-1.26-1.76-1.97-3.95-2.13-6.6h-18.93c.08,6.4,1.54,11.67,4.35,15.86,2.83,4.17,6.78,7.3,11.87,9.35,5.07,2.05,11.05,3.07,17.89,3.07s12.64-.98,17.47-2.95c4.83-1.97,8.54-4.81,11.13-8.5,2.59-3.71,3.89-8.14,3.91-13.32-.02-3.27-.58-6.22-1.66-8.87Z"/>
    <rect class="cls-1" x="298.16" y="484.22" width="16.23" height="16.23"/>
  </g>
  <g>
    <path class="cls-1" d="M238.94,414.24l-58.09-29.04v98.24h65.5v-57.21c0-5.08-2.87-9.72-7.41-11.99Z"/>
    <path class="cls-1" d="M49.86,548.94v65.5h65.5l-29.04-58.09c-2.27-4.54-6.91-7.41-11.99-7.41h-24.46Z"/>
    <rect class="cls-1" x="49.86" y="417.94" width="65.5" height="65.5"/>
    <path class="cls-1" d="M115.36,483.44l61.74,123.49c2.3,4.59,7.01,7.47,12.14,7.41l57.11-.66-65.5-130.24h-65.5Z"/>
  </g>
</svg>