<?xml version="1.0" encoding="UTF-8"?>
<svg xmlns="http://www.w3.org/2000/svg" xmlns:xlink="http://www.w3.org/1999/xlink" width="24px" height="24px" viewBox="0 0 24 24" version="1.1">
<g id="surface1">
<path style=" stroke:none;fill-rule:nonzero;fill:rgb(0%,0%,0%);fill-opacity:1;" d="M 20.878906 15.039062 C 20.480469 14.859375 20.015625 15.042969 19.839844 15.441406 C 18.46875 18.554688 15.386719 20.5625 11.988281 20.5625 C 8.007812 20.5625 4.65625 17.839844 3.691406 14.164062 L 4.183594 14.652344 C 4.492188 14.957031 4.992188 14.957031 5.300781 14.648438 C 5.609375 14.335938 5.605469 13.835938 5.296875 13.53125 L 3.175781 11.425781 C 3.171875 11.421875 3.167969 11.417969 3.164062 11.414062 C 3.128906 11.382812 3.089844 11.351562 3.050781 11.324219 C 3.035156 11.316406 3.019531 11.308594 3.003906 11.300781 C 2.972656 11.28125 2.9375 11.265625 2.902344 11.25 C 2.882812 11.242188 2.867188 11.238281 2.847656 11.234375 C 2.8125 11.222656 2.78125 11.214844 2.746094 11.207031 C 2.722656 11.207031 2.699219 11.203125 2.675781 11.203125 C 2.65625 11.199219 2.640625 11.195312 2.621094 11.195312 C 2.605469 11.195312 2.59375 11.199219 2.582031 11.199219 C 2.570312 11.199219 2.558594 11.199219 2.546875 11.199219 C 2.535156 11.199219 2.523438 11.207031 2.507812 11.207031 C 2.476562 11.210938 2.445312 11.21875 2.414062 11.226562 C 2.390625 11.234375 2.371094 11.238281 2.351562 11.246094 C 2.316406 11.257812 2.289062 11.273438 2.257812 11.289062 C 2.238281 11.296875 2.222656 11.304688 2.203125 11.316406 C 2.171875 11.335938 2.144531 11.359375 2.121094 11.378906 C 2.105469 11.390625 2.089844 11.402344 2.074219 11.417969 C 2.042969 11.445312 2.015625 11.480469 1.988281 11.515625 C 1.984375 11.523438 1.976562 11.527344 1.96875 11.539062 L 1.964844 11.542969 L 0.273438 13.996094 C 0.0234375 14.355469 0.113281 14.847656 0.472656 15.09375 C 0.609375 15.191406 0.765625 15.234375 0.921875 15.234375 C 1.171875 15.234375 1.417969 15.117188 1.570312 14.894531 L 2.070312 14.175781 C 3.074219 18.726562 7.136719 22.144531 11.984375 22.144531 C 16.011719 22.144531 19.660156 19.761719 21.285156 16.078125 C 21.460938 15.679688 21.28125 15.214844 20.878906 15.039062 Z M 20.878906 15.039062 "/>
<path style=" stroke:none;fill-rule:nonzero;fill:rgb(0%,0%,0%);fill-opacity:1;" d="M 23.5 8.878906 C 23.140625 8.628906 22.648438 8.71875 22.402344 9.078125 L 21.902344 9.796875 C 20.898438 5.246094 16.835938 1.828125 11.988281 1.828125 C 7.960938 1.828125 4.3125 4.210938 2.6875 7.894531 C 2.511719 8.292969 2.691406 8.757812 3.09375 8.9375 C 3.492188 9.113281 3.957031 8.929688 4.132812 8.53125 C 5.503906 5.421875 8.589844 3.410156 11.988281 3.410156 C 15.964844 3.410156 19.316406 6.132812 20.28125 9.8125 L 19.789062 9.320312 C 19.480469 9.015625 18.980469 9.015625 18.671875 9.324219 C 18.363281 9.636719 18.367188 10.136719 18.675781 10.441406 L 20.796875 12.546875 C 20.808594 12.558594 20.820312 12.566406 20.832031 12.578125 C 20.859375 12.601562 20.886719 12.625 20.914062 12.644531 C 20.929688 12.65625 20.949219 12.660156 20.964844 12.671875 C 20.992188 12.6875 21.019531 12.703125 21.050781 12.714844 C 21.070312 12.722656 21.089844 12.730469 21.113281 12.734375 C 21.140625 12.746094 21.167969 12.753906 21.199219 12.761719 C 21.25 12.773438 21.300781 12.777344 21.351562 12.777344 C 21.378906 12.777344 21.402344 12.777344 21.425781 12.773438 C 21.4375 12.773438 21.453125 12.769531 21.464844 12.765625 C 21.496094 12.761719 21.527344 12.753906 21.558594 12.746094 C 21.582031 12.742188 21.601562 12.734375 21.625 12.726562 C 21.65625 12.714844 21.683594 12.699219 21.714844 12.683594 C 21.734375 12.675781 21.753906 12.667969 21.769531 12.65625 C 21.800781 12.636719 21.828125 12.617188 21.855469 12.59375 C 21.871094 12.582031 21.886719 12.570312 21.898438 12.554688 C 21.929688 12.527344 21.957031 12.492188 21.984375 12.460938 C 21.988281 12.449219 21.996094 12.445312 22.003906 12.4375 L 23.703125 9.976562 C 23.949219 9.617188 23.859375 9.125 23.5 8.878906 Z M 23.5 8.878906 "/>
</g>
</svg>
